<svg xmlns="http://www.w3.org/2000/svg" width="1200" height="480"><rect width="1200" height="480" rx="28" fill="#f6f0e5"/><g font-family="system-ui" fill="#24343b"><text x="55" y="65" font-size="34" font-weight="700">失败不是一句话，而是一条证据链</text><g stroke="#24343b" stroke-width="3"><rect x="50" y="145" width="205" height="120" rx="18" fill="#fffaf1"/><rect x="330" y="145" width="205" height="120" rx="18" fill="#8ec5d6"/><rect x="610" y="145" width="220" height="120" rx="18" fill="#f2bd62"/><rect x="905" y="145" width="245" height="120" rx="18" fill="#e98472"/></g><g text-anchor="middle"><text x="152" y="195" font-size="22">Event</text><text x="152" y="232" font-size="16">task / run</text><text x="432" y="195" font-size="22">Stage</text><text x="432" y="232" font-size="16">revision / SHA</text><text x="720" y="195" font-size="22">Evidence</text><text x="720" y="232" font-size="16">exit code / 摘要</text><text x="1027" y="195" font-size="22">Decision</text><text x="1027" y="232" font-size="16">retry / human / fail</text><text x="600" y="370" font-size="17">保存前裁剪和脱敏；Secret 不参加故事会</text></g><path d="M255 205h70m-15-12 15 12-15 12M535 205h70m-15-12 15 12-15 12M830 205h70m-15-12 15 12-15 12" stroke="#24343b" stroke-width="4"/></g></svg>
