<svg xmlns="http://www.w3.org/2000/svg" width="1200" height="480"><rect width="1200" height="480" rx="28" fill="#f6f0e5"/><g font-family="system-ui" fill="#24343b"><text x="55" y="65" font-size="34" font-weight="700">聪明的核心，严谨的护栏</text><circle cx="600" cy="245" r="95" fill="#8ec5d6" stroke="#24343b" stroke-width="4"/><text x="600" y="235" text-anchor="middle" font-size="24">Agent</text><text x="600" y="275" text-anchor="middle" font-size="16">分析 · 实现 · 修复</text><g font-size="17" text-anchor="middle" stroke="#24343b" stroke-width="3"><rect x="75" y="115" width="210" height="65" rx="17" fill="#fffaf1"/><rect x="75" y="215" width="210" height="65" rx="17" fill="#f2bd62"/><rect x="75" y="315" width="210" height="65" rx="17" fill="#fffaf1"/><rect x="915" y="115" width="210" height="65" rx="17" fill="#f2bd62"/><rect x="915" y="215" width="210" height="65" rx="17" fill="#fffaf1"/><rect x="915" y="315" width="210" height="65" rx="17" fill="#f2bd62"/></g><g text-anchor="middle" font-size="17"><text x="180" y="155">责任边界</text><text x="180" y="255">幂等副作用</text><text x="180" y="355">不可信输入</text><text x="1020" y="155">阶段与状态</text><text x="1020" y="255">revision 证据</text><text x="1020" y="355">失败与重放</text></g><g stroke="#64777f" stroke-width="3" stroke-dasharray="9 9"><path d="M285 148h230M285 248h220M285 348h250M685 148h230M695 248h220M665 348h250"/></g></g></svg>
